<svg width="13" height="14" viewBox="0 0 13 14" fill="none" xmlns="http://www.w3.org/2000/svg">
<path d="M7.25 1.34326C7.25 0.929048 6.91421 0.593262 6.5 0.593262C6.08579 0.593262 5.75 0.929048 5.75 1.34326L6.5 1.34326L7.25 1.34326ZM5.96967 13.1873C6.26256 13.4802 6.73744 13.4802 7.03033 13.1873L11.8033 8.41433C12.0962 8.12144 12.0962 7.64656 11.8033 7.35367C11.5104 7.06078 11.0355 7.06078 10.7426 7.35367L6.5 11.5963L2.25736 7.35367C1.96447 7.06078 1.48959 7.06078 1.1967 7.35367C0.903805 7.64656 0.903805 8.12144 1.1967 8.41433L5.96967 13.1873ZM6.5 1.34326L5.75 1.34326L5.75 12.657L6.5 12.657L7.25 12.657L7.25 1.34326L6.5 1.34326Z" fill="white"/>
</svg>
