<svg width="22" height="22" viewBox="0 0 22 22" fill="none" xmlns="http://www.w3.org/2000/svg">
<g clip-path="url(#clip0_1_297)">
<path d="M18.0696 7.85756C18.0696 12.5718 10.9982 18.0718 10.9982 18.0718C10.9982 18.0718 3.92676 12.5718 3.92676 7.85756C3.92676 4.00599 7.14662 0.786133 10.9982 0.786133C14.8498 0.786133 18.0696 4.00599 18.0696 7.85756Z" fill="#D7E0FF"/>
<path d="M18.0696 7.85756C18.0696 12.5718 10.9982 18.0718 10.9982 18.0718C10.9982 18.0718 3.92676 12.5718 3.92676 7.85756C3.92676 4.00599 7.14661 0.786133 10.9982 0.786133C14.8498 0.786133 18.0696 4.00599 18.0696 7.85756Z" stroke="#4147D5" stroke-width="1.57143" stroke-linecap="round" stroke-linejoin="round"/>
<path d="M17.4075 15.7143H18.8579L21.2151 21.2143H0.786499L3.14364 15.7143H4.59407M11.0008 10.2143C11.6259 10.2143 12.2255 9.96594 12.6675 9.52389C13.1096 9.08184 13.3579 8.4823 13.3579 7.85714C13.3579 7.23199 13.1096 6.63244 12.6675 6.19039C12.2255 5.74834 11.6259 5.5 11.0008 5.5C10.3756 5.5 9.77608 5.74834 9.33403 6.19039C8.89198 6.63244 8.64364 7.23199 8.64364 7.85714C8.64364 8.4823 8.89198 9.08184 9.33403 9.52389C9.77608 9.96594 10.3756 10.2143 11.0008 10.2143Z" stroke="#4147D5" stroke-width="1.57143" stroke-linecap="round" stroke-linejoin="round"/>
</g>
<defs>
<clipPath id="clip0_1_297">
<rect width="22" height="22" fill="white"/>
</clipPath>
</defs>
</svg>
