<svg width="20" height="20" viewBox="0 0 20 20" fill="none" xmlns="http://www.w3.org/2000/svg">
<g clip-path="url(#clip0_1_322)">
<path fill-rule="evenodd" clip-rule="evenodd" d="M19.9535 0.971673C20.0036 0.842528 20.0151 0.7016 19.9865 0.566052C19.958 0.430504 19.8906 0.306184 19.7927 0.208233C19.6947 0.110282 19.5704 0.0429258 19.4348 0.0143677C19.2993 -0.0141904 19.1584 -0.00271819 19.0292 0.0473872L0.457799 7.19024C0.326387 7.2408 0.212849 7.32907 0.131451 7.44396C0.0500538 7.55886 0.0044277 7.69524 0.000306178 7.83598C-0.00381534 7.97673 0.0337515 8.11555 0.108286 8.235C0.182821 8.35446 0.290999 8.44922 0.419227 8.50739L8.03351 11.9688L11.4935 19.5817C11.5517 19.7099 11.6464 19.8181 11.7659 19.8926C11.8854 19.9671 12.0242 20.0047 12.1649 20.0006C12.3057 19.9965 12.442 19.9508 12.5569 19.8694C12.6718 19.788 12.7601 19.6745 12.8107 19.5431L19.9535 0.971673Z" fill="#8FBFFA"/>
<path fill-rule="evenodd" clip-rule="evenodd" d="M8.5079 13.0101L12.9022 8.61435C13.0914 8.41124 13.1945 8.1426 13.1896 7.86503C13.1847 7.58745 13.0722 7.32262 12.8759 7.12631C12.6796 6.93001 12.4148 6.81756 12.1372 6.81267C11.8596 6.80777 11.591 6.9108 11.3879 7.10006L6.99219 11.4943L8.03504 11.9686L8.5079 13.0101Z" fill="#2859C5"/>
</g>
<defs>
<clipPath id="clip0_1_322">
<rect width="20" height="20" fill="white"/>
</clipPath>
</defs>
</svg>
