<svg width="16" height="17" viewBox="0 0 16 17" fill="none" xmlns="http://www.w3.org/2000/svg">
<path d="M13.3334 7.16683C13.3334 10.4955 9.64069 13.9622 8.40069 15.0328C8.28517 15.1197 8.14455 15.1667 8.00002 15.1667C7.85549 15.1667 7.71487 15.1197 7.59935 15.0328C6.35935 13.9622 2.66669 10.4955 2.66669 7.16683C2.66669 5.75234 3.22859 4.39579 4.22878 3.39559C5.22898 2.3954 6.58553 1.8335 8.00002 1.8335C9.41451 1.8335 10.7711 2.3954 11.7713 3.39559C12.7715 4.39579 13.3334 5.75234 13.3334 7.16683Z" stroke="#FFC933" stroke-width="1.33333" stroke-linecap="round" stroke-linejoin="round"/>
<path d="M8 9.1665C9.10457 9.1665 10 8.27107 10 7.1665C10 6.06193 9.10457 5.1665 8 5.1665C6.89543 5.1665 6 6.06193 6 7.1665C6 8.27107 6.89543 9.1665 8 9.1665Z" stroke="#FFC933" stroke-width="1.33333" stroke-linecap="round" stroke-linejoin="round"/>
</svg>
