<svg width="28" height="28" viewBox="0 0 28 28" fill="none" xmlns="http://www.w3.org/2000/svg">
<path d="M7 23.333V5.83301H18.6667C19.95 5.83301 21 6.88301 21 8.16634V23.333C21 24.6163 19.95 25.6663 18.6667 25.6663H9.33333C8.05 25.6663 7 24.6163 7 23.333Z" fill="#546E7A"/>
<path d="M18.6667 7.58301H9.33333C8.98333 7.58301 8.75 7.81634 8.75 8.16634V12.833C8.75 13.183 8.98333 13.4163 9.33333 13.4163H18.6667C19.0167 13.4163 19.25 13.183 19.25 12.833V8.16634C19.25 7.81634 19.0167 7.58301 18.6667 7.58301Z" fill="#4FC3F7"/>
<path d="M11.0833 17.5H9.91665C9.56665 17.5 9.33331 17.2667 9.33331 16.9167V16.3333C9.33331 15.9833 9.56665 15.75 9.91665 15.75H11.0833C11.4333 15.75 11.6666 15.9833 11.6666 16.3333V16.9167C11.6666 17.2667 11.4333 17.5 11.0833 17.5ZM14.5833 17.5H13.4166C13.0666 17.5 12.8333 17.2667 12.8333 16.9167V16.3333C12.8333 15.9833 13.0666 15.75 13.4166 15.75H14.5833C14.9333 15.75 15.1666 15.9833 15.1666 16.3333V16.9167C15.1666 17.2667 14.9333 17.5 14.5833 17.5ZM18.0833 17.5H16.9166C16.5666 17.5 16.3333 17.2667 16.3333 16.9167V16.3333C16.3333 15.9833 16.5666 15.75 16.9166 15.75H18.0833C18.4333 15.75 18.6666 15.9833 18.6666 16.3333V16.9167C18.6666 17.2667 18.4333 17.5 18.0833 17.5ZM11.0833 20.4167H9.91665C9.56665 20.4167 9.33331 20.1833 9.33331 19.8333V19.25C9.33331 18.9 9.56665 18.6667 9.91665 18.6667H11.0833C11.4333 18.6667 11.6666 18.9 11.6666 19.25V19.8333C11.6666 20.1833 11.4333 20.4167 11.0833 20.4167ZM14.5833 20.4167H13.4166C13.0666 20.4167 12.8333 20.1833 12.8333 19.8333V19.25C12.8333 18.9 13.0666 18.6667 13.4166 18.6667H14.5833C14.9333 18.6667 15.1666 18.9 15.1666 19.25V19.8333C15.1666 20.1833 14.9333 20.4167 14.5833 20.4167ZM18.0833 20.4167H16.9166C16.5666 20.4167 16.3333 20.1833 16.3333 19.8333V19.25C16.3333 18.9 16.5666 18.6667 16.9166 18.6667H18.0833C18.4333 18.6667 18.6666 18.9 18.6666 19.25V19.8333C18.6666 20.1833 18.4333 20.4167 18.0833 20.4167ZM11.0833 23.3333H9.91665C9.56665 23.3333 9.33331 23.1 9.33331 22.75V22.1667C9.33331 21.8167 9.56665 21.5833 9.91665 21.5833H11.0833C11.4333 21.5833 11.6666 21.8167 11.6666 22.1667V22.75C11.6666 23.1 11.4333 23.3333 11.0833 23.3333ZM14.5833 23.3333H13.4166C13.0666 23.3333 12.8333 23.1 12.8333 22.75V22.1667C12.8333 21.8167 13.0666 21.5833 13.4166 21.5833H14.5833C14.9333 21.5833 15.1666 21.8167 15.1666 22.1667V22.75C15.1666 23.1 14.9333 23.3333 14.5833 23.3333ZM18.0833 23.3333H16.9166C16.5666 23.3333 16.3333 23.1 16.3333 22.75V22.1667C16.3333 21.8167 16.5666 21.5833 16.9166 21.5833H18.0833C18.4333 21.5833 18.6666 21.8167 18.6666 22.1667V22.75C18.6666 23.1 18.4333 23.3333 18.0833 23.3333Z" fill="#B3E5FC"/>
<path d="M9.33333 5.83366H7V2.33366C7 1.69199 7.525 1.16699 8.16667 1.16699C8.80833 1.16699 9.33333 1.69199 9.33333 2.33366V5.83366Z" fill="#37474F"/>
</svg>
